<svg xmlns="http://www.w3.org/2000/svg" width="199.91" height="200" viewBox="0 0 199.91 200">
  <defs>
    <style>
      .cls-1 {
        fill: #4d4d4d;
        fill-rule: evenodd;
      }
    </style>
  </defs>
  <path id="FT-icon-time.svg" class="cls-1" d="M2860.92,5880a100,100,0,1,0,100,100A99.8,99.8,0,0,0,2860.92,5880Zm0,189.75c-49.23,0-89.74-40.52-89.74-89.75s40.51-89.74,89.74-89.74,89.74,40.51,89.74,89.74S2910.15,6069.75,2860.92,6069.75Zm0-86.16V5915.9a5.13,5.13,0,0,0-10.26,0v69.74a4.666,4.666,0,0,0,1.54,3.59l32.82,32.82a4.954,4.954,0,0,0,7.18,0,4.96,4.96,0,0,0,0-7.18Z" transform="translate(-2761 -5880)"/>
</svg>
